<mxfile host="app.diagrams.net" modified="2022-04-24T03:45:44.109Z" agent="5.0 (Macintosh)" etag="pai7s3OwrO0maCQfVIPR" version="17.4.4" type="github">
  <diagram id="_fylSDSvpLwxbsqKzOXf" name="Page-1">
    <mxGraphModel dx="1771" dy="564" grid="1" gridSize="10" guides="1" tooltips="1" connect="1" arrows="1" fold="1" page="1" pageScale="1" pageWidth="850" pageHeight="1100" math="0" shadow="0">
      <root>
        <mxCell id="0" />
        <mxCell id="1" parent="0" />
        <mxCell id="GoYC3unCIj-I3X4RpW2E-1" value="Order" style="swimlane;fontStyle=1;align=center;verticalAlign=top;childLayout=stackLayout;horizontal=1;startSize=26;horizontalStack=0;resizeParent=1;resizeParentMax=0;resizeLast=0;collapsible=1;marginBottom=0;" vertex="1" parent="1">
          <mxGeometry x="180" y="300" width="260" height="260" as="geometry" />
        </mxCell>
        <mxCell id="GoYC3unCIj-I3X4RpW2E-2" value="- id: String&#xa;- name: String&#xa;- prepTime: Interger ( less than 30 mins)&#xa;- orderTime: Interger&#xa;- readyTime: Interger&#xa;- deliveredTime: Interger&#xa;- courierId: String&#xa;- status: String (preparing/ready)&#xa;&#xa;&#xa;&#xa;&#xa;&#xa;" style="text;strokeColor=none;fillColor=none;align=left;verticalAlign=top;spacingLeft=4;spacingRight=4;overflow=hidden;rotatable=0;points=[[0,0.5],[1,0.5]];portConstraint=eastwest;" vertex="1" parent="GoYC3unCIj-I3X4RpW2E-1">
          <mxGeometry y="26" width="260" height="144" as="geometry" />
        </mxCell>
        <mxCell id="GoYC3unCIj-I3X4RpW2E-3" value="" style="line;strokeWidth=1;fillColor=none;align=left;verticalAlign=middle;spacingTop=-1;spacingLeft=3;spacingRight=3;rotatable=0;labelPosition=right;points=[];portConstraint=eastwest;" vertex="1" parent="GoYC3unCIj-I3X4RpW2E-1">
          <mxGeometry y="170" width="260" height="8" as="geometry" />
        </mxCell>
        <mxCell id="GoYC3unCIj-I3X4RpW2E-4" value="+ method(type): type" style="text;strokeColor=none;fillColor=none;align=left;verticalAlign=top;spacingLeft=4;spacingRight=4;overflow=hidden;rotatable=0;points=[[0,0.5],[1,0.5]];portConstraint=eastwest;" vertex="1" parent="GoYC3unCIj-I3X4RpW2E-1">
          <mxGeometry y="178" width="260" height="82" as="geometry" />
        </mxCell>
        <mxCell id="GoYC3unCIj-I3X4RpW2E-9" value="Courier" style="swimlane;fontStyle=1;align=center;verticalAlign=top;childLayout=stackLayout;horizontal=1;startSize=26;horizontalStack=0;resizeParent=1;resizeParentMax=0;resizeLast=0;collapsible=1;marginBottom=0;" vertex="1" parent="1">
          <mxGeometry x="480" y="300" width="280" height="220" as="geometry" />
        </mxCell>
        <mxCell id="GoYC3unCIj-I3X4RpW2E-10" value="- id: String&#xa;- arrivalTime: Interger ( 3 - 15 seconds)&#xa;- dispatchedTime: Interger&#xa;- status: available/waiting&#xa;&#xa;&#xa;" style="text;strokeColor=none;fillColor=none;align=left;verticalAlign=top;spacingLeft=4;spacingRight=4;overflow=hidden;rotatable=0;points=[[0,0.5],[1,0.5]];portConstraint=eastwest;" vertex="1" parent="GoYC3unCIj-I3X4RpW2E-9">
          <mxGeometry y="26" width="280" height="74" as="geometry" />
        </mxCell>
        <mxCell id="GoYC3unCIj-I3X4RpW2E-11" value="" style="line;strokeWidth=1;fillColor=none;align=left;verticalAlign=middle;spacingTop=-1;spacingLeft=3;spacingRight=3;rotatable=0;labelPosition=right;points=[];portConstraint=eastwest;" vertex="1" parent="GoYC3unCIj-I3X4RpW2E-9">
          <mxGeometry y="100" width="280" height="8" as="geometry" />
        </mxCell>
        <mxCell id="GoYC3unCIj-I3X4RpW2E-12" value="+ method(type): type" style="text;strokeColor=none;fillColor=none;align=left;verticalAlign=top;spacingLeft=4;spacingRight=4;overflow=hidden;rotatable=0;points=[[0,0.5],[1,0.5]];portConstraint=eastwest;" vertex="1" parent="GoYC3unCIj-I3X4RpW2E-9">
          <mxGeometry y="108" width="280" height="112" as="geometry" />
        </mxCell>
        <mxCell id="GoYC3unCIj-I3X4RpW2E-13" value="OrderManager" style="swimlane;fontStyle=1;align=center;verticalAlign=top;childLayout=stackLayout;horizontal=1;startSize=26;horizontalStack=0;resizeParent=1;resizeParentMax=0;resizeLast=0;collapsible=1;marginBottom=0;" vertex="1" parent="1">
          <mxGeometry x="180" y="60" width="260" height="212" as="geometry" />
        </mxCell>
        <mxCell id="GoYC3unCIj-I3X4RpW2E-14" value="- ordersPerSec(2): final int&#xa;- orderQueue&#xa;&#xa;" style="text;strokeColor=none;fillColor=none;align=left;verticalAlign=top;spacingLeft=4;spacingRight=4;overflow=hidden;rotatable=0;points=[[0,0.5],[1,0.5]];portConstraint=eastwest;" vertex="1" parent="GoYC3unCIj-I3X4RpW2E-13">
          <mxGeometry y="26" width="260" height="44" as="geometry" />
        </mxCell>
        <mxCell id="GoYC3unCIj-I3X4RpW2E-15" value="" style="line;strokeWidth=1;fillColor=none;align=left;verticalAlign=middle;spacingTop=-1;spacingLeft=3;spacingRight=3;rotatable=0;labelPosition=right;points=[];portConstraint=eastwest;" vertex="1" parent="GoYC3unCIj-I3X4RpW2E-13">
          <mxGeometry y="70" width="260" height="38" as="geometry" />
        </mxCell>
        <mxCell id="GoYC3unCIj-I3X4RpW2E-16" value="+ createOrders(): void&#xa;+ processOrders(): void&#xa;+ getNextAvailableOrder(): Order&#xa;+ printStatistics(): void&#xa;-  getAverageWaitTime(): Interger&#xa;&#xa;&#xa;&#xa;" style="text;strokeColor=none;fillColor=none;align=left;verticalAlign=top;spacingLeft=4;spacingRight=4;overflow=hidden;rotatable=0;points=[[0,0.5],[1,0.5]];portConstraint=eastwest;" vertex="1" parent="GoYC3unCIj-I3X4RpW2E-13">
          <mxGeometry y="108" width="260" height="104" as="geometry" />
        </mxCell>
        <mxCell id="GoYC3unCIj-I3X4RpW2E-17" value="CourierManager" style="swimlane;fontStyle=1;align=center;verticalAlign=top;childLayout=stackLayout;horizontal=1;startSize=26;horizontalStack=0;resizeParent=1;resizeParentMax=0;resizeLast=0;collapsible=1;marginBottom=0;" vertex="1" parent="1">
          <mxGeometry x="480" y="60" width="280" height="210" as="geometry">
            <mxRectangle x="560" y="140" width="120" height="26" as="alternateBounds" />
          </mxGeometry>
        </mxCell>
        <mxCell id="GoYC3unCIj-I3X4RpW2E-18" value="- courierCount: int&#xa;- courierQueue&#xa;- strategy&#xa;&#xa;" style="text;strokeColor=none;fillColor=none;align=left;verticalAlign=top;spacingLeft=4;spacingRight=4;overflow=hidden;rotatable=0;points=[[0,0.5],[1,0.5]];portConstraint=eastwest;" vertex="1" parent="GoYC3unCIj-I3X4RpW2E-17">
          <mxGeometry y="26" width="280" height="54" as="geometry" />
        </mxCell>
        <mxCell id="GoYC3unCIj-I3X4RpW2E-19" value="" style="line;strokeWidth=1;fillColor=none;align=left;verticalAlign=middle;spacingTop=-1;spacingLeft=3;spacingRight=3;rotatable=0;labelPosition=right;points=[];portConstraint=eastwest;" vertex="1" parent="GoYC3unCIj-I3X4RpW2E-17">
          <mxGeometry y="80" width="280" height="8" as="geometry" />
        </mxCell>
        <mxCell id="GoYC3unCIj-I3X4RpW2E-20" value="+ dispatchCourier(Courier, order): type&#xa;+ printStatistics(): void&#xa;-  getAverageWaitTime: void&#xa;" style="text;strokeColor=none;fillColor=none;align=left;verticalAlign=top;spacingLeft=4;spacingRight=4;overflow=hidden;rotatable=0;points=[[0,0.5],[1,0.5]];portConstraint=eastwest;" vertex="1" parent="GoYC3unCIj-I3X4RpW2E-17">
          <mxGeometry y="88" width="280" height="122" as="geometry" />
        </mxCell>
        <mxCell id="GoYC3unCIj-I3X4RpW2E-27" value="OrderDeliverySystem" style="swimlane;fontStyle=1;align=center;verticalAlign=top;childLayout=stackLayout;horizontal=1;startSize=26;horizontalStack=0;resizeParent=1;resizeParentMax=0;resizeLast=0;collapsible=1;marginBottom=0;fillColor=#00FF00;" vertex="1" parent="1">
          <mxGeometry x="-70" y="160" width="160" height="86" as="geometry" />
        </mxCell>
        <mxCell id="GoYC3unCIj-I3X4RpW2E-28" value="+ strategy: String" style="text;strokeColor=none;fillColor=none;align=left;verticalAlign=top;spacingLeft=4;spacingRight=4;overflow=hidden;rotatable=0;points=[[0,0.5],[1,0.5]];portConstraint=eastwest;" vertex="1" parent="GoYC3unCIj-I3X4RpW2E-27">
          <mxGeometry y="26" width="160" height="26" as="geometry" />
        </mxCell>
        <mxCell id="GoYC3unCIj-I3X4RpW2E-29" value="" style="line;strokeWidth=1;fillColor=none;align=left;verticalAlign=middle;spacingTop=-1;spacingLeft=3;spacingRight=3;rotatable=0;labelPosition=right;points=[];portConstraint=eastwest;" vertex="1" parent="GoYC3unCIj-I3X4RpW2E-27">
          <mxGeometry y="52" width="160" height="8" as="geometry" />
        </mxCell>
        <mxCell id="GoYC3unCIj-I3X4RpW2E-30" value="+ main() void" style="text;strokeColor=none;fillColor=none;align=left;verticalAlign=top;spacingLeft=4;spacingRight=4;overflow=hidden;rotatable=0;points=[[0,0.5],[1,0.5]];portConstraint=eastwest;" vertex="1" parent="GoYC3unCIj-I3X4RpW2E-27">
          <mxGeometry y="60" width="160" height="26" as="geometry" />
        </mxCell>
      </root>
    </mxGraphModel>
  </diagram>
</mxfile>
